<?xml version="1.0" encoding="UTF-8" standalone="no"?><!DOCTYPE svg PUBLIC "-//W3C//DTD SVG 1.1//EN" "http://www.w3.org/Graphics/SVG/1.1/DTD/svg11.dtd"><!-- Generated by graphviz version 2.40.1 (20161225.0304)
 --><!-- Title: G Pages: 1 --><svg xmlns="http://www.w3.org/2000/svg" xmlns:xlink="http://www.w3.org/1999/xlink" width="516pt" height="188pt" viewBox="0.00 0.00 515.53 187.74">
<g id="graph0" class="graph" transform="scale(1 1) rotate(0) translate(4 183.7382)">
<title>G</title>
<polygon fill="#ffffff" stroke="transparent" points="-4,4 -4,-183.7382 511.5264,-183.7382 511.5264,4 -4,4"/>
<!-- Parent -->
<g id="node1" class="node">
<title>Parent</title>
<ellipse fill="none" stroke="#000000" cx="35.7052" cy="-76.7382" rx="35.9115" ry="18"/>
<text text-anchor="middle" x="35.7052" y="-72.5382" font-family="Times,serif" font-size="14.00" fill="#000000">Parent</text>
</g>
<!-- Collector #1 -->
<g id="node2" class="node">
<title>Collector #1</title>
<ellipse fill="none" stroke="#000000" cx="255.8402" cy="-161.7382" rx="59.0882" ry="18"/>
<text text-anchor="middle" x="255.8402" y="-157.5382" font-family="Times,serif" font-size="14.00" fill="#000000">Collector #1</text>
</g>
<!-- Parent&#45;&gt;Collector #1 -->
<g id="edge1" class="edge">
<title>Parent-&gt;Collector #1</title>
<path fill="none" stroke="#000000" d="M52.9174,-92.6911C62.9181,-101.2058 76.1355,-111.2395 89.4103,-117.7382 121.9882,-133.6866 161.0828,-144.4025 193.193,-151.2627"/>
<polygon fill="#000000" stroke="#000000" points="192.8554,-154.7665 203.3559,-153.3563 194.2678,-147.9105 192.8554,-154.7665"/>
<text text-anchor="middle" x="134.1032" y="-151.9382" font-family="Times,serif" font-size="14.00" fill="#000000">collector_create</text>
</g>
<!-- Collector #2 -->
<g id="node3" class="node">
<title>Collector #2</title>
<ellipse fill="none" stroke="#000000" cx="255.8402" cy="-107.7382" rx="59.0882" ry="18"/>
<text text-anchor="middle" x="255.8402" y="-103.5382" font-family="Times,serif" font-size="14.00" fill="#000000">Collector #2</text>
</g>
<!-- Parent&#45;&gt;Collector #2 -->
<g id="edge2" class="edge">
<title>Parent-&gt;Collector #2</title>
<path fill="none" stroke="#000000" d="M70.1013,-81.582C102.5835,-86.1562 152.1073,-93.1303 191.8504,-98.727"/>
<polygon fill="#000000" stroke="#000000" points="191.5987,-102.226 201.9891,-100.1548 192.5749,-95.2944 191.5987,-102.226"/>
<text text-anchor="middle" x="134.1032" y="-100.9382" font-family="Times,serif" font-size="14.00" fill="#000000">collector_create</text>
</g>
<!-- Collector #3 -->
<g id="node4" class="node">
<title>Collector #3</title>
<ellipse fill="none" stroke="#000000" cx="255.8402" cy="-53.7382" rx="59.0882" ry="18"/>
<text text-anchor="middle" x="255.8402" y="-49.5382" font-family="Times,serif" font-size="14.00" fill="#000000">Collector #3</text>
</g>
<!-- Parent&#45;&gt;Collector #3 -->
<g id="edge3" class="edge">
<title>Parent-&gt;Collector #3</title>
<path fill="none" stroke="#000000" d="M67.9383,-68.8393C74.9792,-67.3431 82.417,-65.9361 89.4103,-64.9382 121.2106,-60.4005 156.6988,-57.6924 186.709,-56.0803"/>
<polygon fill="#000000" stroke="#000000" points="187.2705,-59.5564 197.0805,-55.5546 186.9161,-52.5654 187.2705,-59.5564"/>
<text text-anchor="middle" x="134.1032" y="-68.9382" font-family="Times,serif" font-size="14.00" fill="#000000">collector_create</text>
</g>
<!-- Collector Results -->
<g id="node5" class="node">
<title>Collector Results</title>
<ellipse fill="none" stroke="#000000" cx="429.7053" cy="-72.7382" rx="77.6425" ry="18"/>
<text text-anchor="middle" x="429.7053" y="-68.5382" font-family="Times,serif" font-size="14.00" fill="#000000">Collector Results</text>
</g>
<!-- Collector #1&#45;&gt;Collector Results -->
<g id="edge4" class="edge">
<title>Collector #1-&gt;Collector Results</title>
<path fill="none" stroke="#000000" d="M289.4342,-146.8421C297.7994,-143.0052 306.7115,-138.8078 314.8843,-134.7382 340.5506,-121.9578 368.903,-106.6604 391.0123,-94.4586"/>
<polygon fill="#000000" stroke="#000000" points="392.7204,-97.5135 399.7719,-89.6061 389.3284,-91.3903 392.7204,-97.5135"/>
</g>
<!-- Collector #2&#45;&gt;Collector Results -->
<g id="edge5" class="edge">
<title>Collector #2-&gt;Collector Results</title>
<path fill="none" stroke="#000000" d="M305.1979,-97.8022C322.5584,-94.3075 342.3945,-90.3144 361.0537,-86.5582"/>
<polygon fill="#000000" stroke="#000000" points="361.8663,-89.9649 370.9789,-84.5602 360.4848,-83.1025 361.8663,-89.9649"/>
</g>
<!-- Collector #3&#45;&gt;Collector Results -->
<g id="edge6" class="edge">
<title>Collector #3-&gt;Collector Results</title>
<path fill="none" stroke="#000000" d="M311.8093,-59.8545C323.7155,-61.1556 336.513,-62.5541 349.131,-63.933"/>
<polygon fill="#000000" stroke="#000000" points="348.8703,-67.4253 359.1914,-65.0324 349.6308,-60.4667 348.8703,-67.4253"/>
</g>
<!-- Collector Results&#45;&gt;Parent -->
<g id="edge7" class="edge">
<title>Collector Results-&gt;Parent</title>
<path fill="none" stroke="#000000" d="M406.5521,-55.4951C384.3504,-40.1157 349.225,-18.7158 314.8843,-9.9382 216.1407,15.3009 183.1461,-11.7268 89.4103,-51.7382 83.4513,-54.2819 77.1727,-57.0876 71.0927,-59.8724"/>
<polygon fill="#000000" stroke="#000000" points="69.3774,-56.8097 61.7765,-64.1906 72.3212,-63.1607 69.3774,-56.8097"/>
<text text-anchor="middle" x="255.8402" y="-14.9382" font-family="Times,serif" font-size="14.00" fill="#000000">collector_collect</text>
</g>
</g>
</svg>